<svg width="265" height="60" viewBox="0 0 265 60" fill="none" xmlns="http://www.w3.org/2000/svg">
<path d="M57.5603 22.9808H34.3065L25.9867 14.5692V2.01392H57.5603V22.9808Z" fill="#FCFCFC"/>
<path d="M22.8913 2.00562V25.2266L14.4678 33.5346H1.89478V2.00562H22.8913Z" fill="#FCFCFC"/>
<path d="M1.89478 36.7749H25.1486L33.4684 45.1865V57.7418H1.89478V36.7749Z" fill="#FCFCFC"/>
<path d="M36.5629 57.7497V34.5287L44.9864 26.2207H57.5595V57.7497H36.5629Z" fill="#FCFCFC"/>
<path d="M79.8293 51.3192H86.1199V33.9739H106.162V28.1562H86.1199V15.4104H107.382V9.53467H79.8293V51.3192Z" fill="#FCFCFC"/>
<path d="M119.445 8.14233H113.503V51.3191H119.445V8.14233Z" fill="#FCFCFC"/>
<path d="M138.993 19.2805C132.827 19.2805 127.188 22.7363 124.959 27.8827L124.798 28.2557L130.15 30.6921L130.312 30.2943C131.648 27.0457 135.134 24.8662 138.993 24.8662C143.209 24.8662 145.732 26.9918 146.711 29.0098V30.9242C145.906 31.8233 142.263 32.362 137.951 32.9173C131.374 33.7667 127.258 35.9131 125.719 39.3068L125.681 39.3896V46.1935L125.727 46.2805C127.54 49.8358 132.221 52.1355 137.657 52.1355C141.263 52.1355 144.587 50.8883 146.943 48.6797V51.3233H152.595V27.4518L152.566 27.3813C150.69 22.5374 145.238 19.2847 138.993 19.2847V19.2805ZM138.412 46.8358C135.175 46.8358 132.835 45.9325 131.449 44.1507V41.1465C132.391 39.4808 134.595 38.5195 138.997 37.8523C143.03 37.2391 145.396 36.6424 146.711 35.8758V43.007C145.188 45.3689 142.018 46.8316 138.412 46.8316V46.8358Z" fill="#FCFCFC"/>
<path d="M168.484 43.2182V25.2721H177.256V20.2085H168.484V10.6367H162.541V19.2058C162.239 19.8812 161.575 20.2085 160.517 20.2085H156.267V25.2721H162.541V45.6671L162.587 45.7541C164.629 49.7693 168.21 51.7251 173.529 51.7251C174.733 51.7251 176.177 51.5552 177.123 51.3066L177.43 51.2237V46.1395H174.285C170.363 46.1395 169.114 44.5939 168.484 43.2182Z" fill="#FCFCFC"/>
<path d="M197.829 7.2141C192.791 7.2141 188.862 9.41438 187.057 13.2514L187.019 13.3343V20.2044H180.745V25.268H187.019V51.3149H192.962V25.268H201.385V20.2044H192.962V15.6008C193.87 13.6202 195.63 12.7376 198.646 12.7376H201.966V7.70306L201.646 7.62847C200.534 7.36742 199.111 7.20996 197.833 7.20996L197.829 7.2141Z" fill="#FCFCFC"/>
<path d="M213.53 20.2085H207.588V51.319H213.53V20.2085Z" fill="#FCFCFC"/>
<path d="M210.559 7.73633C208.85 7.73633 207.315 8.55263 206.651 9.8123L206.601 9.90345V13.1231L206.651 13.2142C207.315 14.478 208.85 15.2902 210.559 15.2902C212.269 15.2902 213.804 14.4739 214.468 13.2142L214.518 13.1231V9.90345L214.468 9.8123C213.804 8.54848 212.269 7.73633 210.559 7.73633Z" fill="#FCFCFC"/>
<path d="M225.737 8.14258H219.795V51.3194H225.737V8.14258Z" fill="#FCFCFC"/>
<path d="M256.531 40.5579L256.373 40.9433C254.879 44.6145 251.526 46.7195 247.174 46.7195C242.261 46.7195 238.796 43.6118 237.887 40.5206V37.6283H261.763V29.6145L261.743 29.4902C259.788 23.3866 253.838 19.2803 246.941 19.2803C240.045 19.2803 233.912 23.3825 232.024 29.4902L232.007 29.5482V41.8507L232.028 41.975C233.982 48.0786 240.049 52.1808 247.12 52.1808C254.19 52.1808 259.406 48.8369 261.904 43.2347L262.079 42.8452L256.535 40.5496L256.531 40.5579ZM255.879 32.5648H237.887V30.8825C238.792 27.3811 242.651 24.7499 246.883 24.7499C251.688 24.7499 255.033 27.8286 255.879 30.8866V32.5648Z" fill="#FCFCFC"/>
</svg>
