<svg id="Logo_Assets" data-name="Logo Assets" xmlns="http://www.w3.org/2000/svg" viewBox="0 0 709.98 164.29"><defs><style>.cls-1{fill:#fff;}</style></defs><g id="Horizontal_Logo_-_B_W_-_Dark_BG" data-name="Horizontal Logo - B&amp;W - Dark BG"><path class="cls-1" d="M40.44,89.82A10.5,10.5,0,0,1,33,92.9H7.87A7.89,7.89,0,0,1,0,85V7.87A7.89,7.89,0,0,1,7.87,0H53.94a7.89,7.89,0,0,1,7.87,7.87V64.1a10.51,10.51,0,0,1-3.07,7.42l-9.16,9.15Z"/><path class="cls-1" d="M74,40.44A10.5,10.5,0,0,1,70.93,33V7.87A7.89,7.89,0,0,1,78.8,0H156a7.87,7.87,0,0,1,7.87,7.87V53.94A7.87,7.87,0,0,1,156,61.81H99.73a10.5,10.5,0,0,1-7.43-3.07l-9.15-9.15Z"/><path class="cls-1" d="M123.39,74.47a10.5,10.5,0,0,1,7.42-3.08H156a7.89,7.89,0,0,1,7.88,7.87v77.15a7.89,7.89,0,0,1-7.88,7.88H109.89a7.89,7.89,0,0,1-7.88-7.88V100.18a10.5,10.5,0,0,1,3.08-7.42l9.15-9.15Z"/><path class="cls-1" d="M89.82,123.85a10.5,10.5,0,0,1,3.08,7.42v25.15A7.89,7.89,0,0,1,85,164.29H7.87A7.89,7.89,0,0,1,0,156.42V110.35a7.87,7.87,0,0,1,7.87-7.87H64.1a10.47,10.47,0,0,1,7.42,3.07l9.15,9.15Z"/><path class="cls-1" d="M423.73,123.65l-.05,0c-1.06.77-2,1.39-2.67,1.85a20,20,0,0,1-1.77,1,4,4,0,0,1-1.32.43,11.43,11.43,0,0,1-1.47.08,4.35,4.35,0,0,1-4.39-2.85c-.79-1.91-1.18-5.52-1.18-10.73V89.18a57.49,57.49,0,0,0-.67-10,19.88,19.88,0,0,0-2.47-6.48c-4-6.32-11.79-9.52-23.25-9.52-8.4,0-15.15,1.43-20,4.24s-7.4,6.75-7.4,11.7a8.64,8.64,0,0,0,2.32,6.27,7.89,7.89,0,0,0,5.91,2.39,8.71,8.71,0,0,0,6.27-2.31,7.9,7.9,0,0,0,2.39-5.91A6.94,6.94,0,0,0,372,74.45a21.33,21.33,0,0,1-1.55-1.62.87.87,0,0,1-.21-.56,2.19,2.19,0,0,1,.94-1.65,9.71,9.71,0,0,1,2.5-1.48,17.13,17.13,0,0,1,3.55-1,22.09,22.09,0,0,1,4.07-.37c6.76,0,11.33,2,13.58,6.05a15.53,15.53,0,0,1,1.19,2.66,21.34,21.34,0,0,1,.74,3.17c.19,1.23.34,2.73.44,4.6s.2,4.18.29,6.69l-13.88,2.51-5.64.89c-2.83.51-5.16,1-7.12,1.41a34.47,34.47,0,0,0-5.2,1.56,26.31,26.31,0,0,0-3.94,1.93,31,31,0,0,0-3.35,2.38c-3.56,3.27-5.36,7.87-5.36,13.7,0,6.22,1.83,11.2,5.44,14.8s8.61,5.43,14.85,5.43a26.56,26.56,0,0,0,12.59-3,44.47,44.47,0,0,0,11.61-9.71,39.63,39.63,0,0,0,1.31,4.71,14.18,14.18,0,0,0,1.65,3,10.63,10.63,0,0,0,3.81,3.29,10.29,10.29,0,0,0,4.72,1.19,16.06,16.06,0,0,0,7.82-2.09,42.48,42.48,0,0,0,8.69-6.83l0,0-1.81-2.42Zm-26-28v11.49c0,5.1-.79,9-2.36,11.69A16.37,16.37,0,0,1,389,125a17.84,17.84,0,0,1-8.72,2.29,13,13,0,0,1-9.67-3.69,13.59,13.59,0,0,1-3.62-9.89c0-6.47,3-10.89,8.86-13.15A52.85,52.85,0,0,1,384,98.22C387.41,97.48,392,96.61,397.69,95.64Z"/><path class="cls-1" d="M474.88,124.7l-.06,0a60.63,60.63,0,0,1-6.15,2.07,17.23,17.23,0,0,1-4.36.6c-3.67,0-6.46-1.11-8.29-3.29s-2.77-5.51-2.77-9.89V72.3h20.62V67.43H453.25V39.87h-3.2l-9.66,9.66,0,0V67.43H423.61V72.3h16.76v47c0,5.4,1.25,9.5,3.72,12.2s6.23,4.07,11.17,4.07a31.18,31.18,0,0,0,9.81-1.63,61.63,61.63,0,0,0,11.44-5.5l.05,0-1.66-3.62Z"/><path class="cls-1" d="M562.71,55.83a8.7,8.7,0,0,0,6.42-2.54,8.82,8.82,0,0,0-6.27-15.09,8.66,8.66,0,0,0-6.2,2.54A8.27,8.27,0,0,0,554,46.87a8.83,8.83,0,0,0,2.54,6.35A8.26,8.26,0,0,0,562.71,55.83Z"/><path class="cls-1" d="M704.28,117.27l0,0a62,62,0,0,1-5.77,5.41,27,27,0,0,1-5.33,3.4,22.2,22.2,0,0,1-5.55,1.78,38,38,0,0,1-6.59.51c-8.34,0-14.66-2.82-18.78-8.38a23.46,23.46,0,0,1-3.77-8.47,59.8,59.8,0,0,1-1.11-13H710v-.07a75.49,75.49,0,0,0-1.33-12.39,30.48,30.48,0,0,0-3.27-8.7,26.08,26.08,0,0,0-11.3-10.55,37.54,37.54,0,0,0-16.94-3.72,39,39,0,0,0-14.41,2.53,30.47,30.47,0,0,0-10.85,7.13A31.71,31.71,0,0,0,645,84.12,43,43,0,0,0,642.51,99,44.13,44.13,0,0,0,645,114.05a33.14,33.14,0,0,0,6.91,11.52,30.45,30.45,0,0,0,10.85,7.35,37.61,37.61,0,0,0,14.26,2.6,43.69,43.69,0,0,0,8.77-.83,31.4,31.4,0,0,0,7.65-2.66,39,39,0,0,0,7.13-4.66,55.82,55.82,0,0,0,7.05-7l0-.05-3.31-3ZM676.69,67.74c6.18,0,10.75,2,13.6,5.94s4.63,10.68,5.32,20H657.48c.69-9.36,2.53-16.1,5.47-20S670.51,67.74,676.69,67.74Z"/><path class="cls-1" d="M332.93,127.91a5.28,5.28,0,0,1-2.93-2.19,10.09,10.09,0,0,1-1.25-4.2,67.9,67.9,0,0,1-.3-7.25V28.76L302.57,35h-.05v4.82h.06a30.86,30.86,0,0,1,6.36.81,7.6,7.6,0,0,1,3.9,2.27,9.4,9.4,0,0,1,1.91,4.56,44.63,44.63,0,0,1,.52,7.54v59.31c0,2.93-.07,5.34-.22,7.18a9,9,0,0,1-1.25,4.26,5.67,5.67,0,0,1-3,2.2,40,40,0,0,1-5.4,1.26l-3.62.3V134H342v-4.56l-3.61-.31A40.6,40.6,0,0,1,332.93,127.91Z"/><path class="cls-1" d="M576.2,127.91a5.32,5.32,0,0,1-2.93-2.19,10.24,10.24,0,0,1-1.25-4.2,67.9,67.9,0,0,1-.3-7.25v-53l-25.88,6.18-.05,0v4.82h.06a30.36,30.36,0,0,1,6.36.8,7.61,7.61,0,0,1,3.9,2.28A9.36,9.36,0,0,1,558,79.9a44.55,44.55,0,0,1,.52,7.54v26.83c0,2.93-.07,5.35-.22,7.18a9,9,0,0,1-1.25,4.26,5.63,5.63,0,0,1-3,2.2,40,40,0,0,1-5.4,1.26l-3.56.29H545V134h40.18v-4.56l-3.61-.31A40.6,40.6,0,0,1,576.2,127.91Z"/><path class="cls-1" d="M626.48,127.91a5.28,5.28,0,0,1-2.93-2.19,10.08,10.08,0,0,1-1.26-4.2,71.19,71.19,0,0,1-.29-7.25V28.76L596.12,35h0v4.82h.06a31,31,0,0,1,6.36.81,7.52,7.52,0,0,1,3.89,2.27,9.41,9.41,0,0,1,1.92,4.56,45.79,45.79,0,0,1,.52,7.54v59.31c0,2.93-.08,5.35-.23,7.18a8.81,8.81,0,0,1-1.25,4.26,5.64,5.64,0,0,1-3,2.2,40.78,40.78,0,0,1-5.4,1.26l-3.56.29h-.06V134h40.17v-4.56l-3.61-.31A40.4,40.4,0,0,1,626.48,127.91Z"/><path class="cls-1" d="M534.91,34.62c-3-2.12-6.87-3.2-11.61-3.2-7.1,0-12.83,2.31-17,6.87S500,49.14,500,57c0,.79,0,4.69.07,6.14s.17,2.85.36,4.33H486.75V72.3h13.49v42c0,3-.07,5.37-.22,7.19a9,9,0,0,1-1.25,4.27,5.63,5.63,0,0,1-3,2.2,40.19,40.19,0,0,1-5.39,1.26l-3.56.29h-.06V134H528v-4.57l-4.65-.3a40.4,40.4,0,0,1-5.4-1.26,5.63,5.63,0,0,1-3-2.2,8.92,8.92,0,0,1-1.25-4.27c-.15-1.81-.22-4.23-.22-7.19V72.3H532V67.43H513.41a65.54,65.54,0,0,1-3.24-13,28.2,28.2,0,0,1,.21-10.1c.83-3.4,2.58-5.76,5.21-7l.29-.12.15-.05.15-.06.1-.05.35-.1a10.57,10.57,0,0,1,3.7-.66,9.38,9.38,0,0,1,3.76.74c1.11.48,1.67,1,1.67,1.43,0,.27-.3.71-.88,1.28a7.83,7.83,0,0,0-2.39,5.69A7.24,7.24,0,0,0,524.74,51a8,8,0,0,0,5.68,2.1,8.28,8.28,0,0,0,6.42-2.84,10.37,10.37,0,0,0,2.54-7.17A10,10,0,0,0,534.91,34.62Z"/><path class="cls-1" d="M218.6,35v4.87l5.4.6c4,.39,6.74,1.43,8.11,3.09a11,11,0,0,1,1,1.4,5.41,5.41,0,0,1,.51,1.9c.1.83.17,1.88.22,3.11s.07,2.9.07,5V114.1c0,2.07,0,3.74-.07,5s-.12,2.28-.22,3.11a6,6,0,0,1-.52,2,5.09,5.09,0,0,1-.95,1.32c-1.37,1.66-4.1,2.7-8.11,3.09l-5.35.6h-.05V134h47.15v-4.87l-6.89-.6c-3.92-.29-6.65-1.33-8.11-3.09a3.82,3.82,0,0,1-.88-1.32,9.81,9.81,0,0,1-.52-2,25.08,25.08,0,0,1-.29-3.1c-.05-1.18-.07-2.81-.07-5V91.16h12.89a22.19,22.19,0,0,1,3.76.39,8.42,8.42,0,0,1,3.54,1.62,10.62,10.62,0,0,1,2.57,3.17,25,25,0,0,1,2,5l1.2,4.14,0,0h5.88V70.32H275l-.95,4A42.93,42.93,0,0,1,272,79.77a10.84,10.84,0,0,1-2.44,3.39,8.05,8.05,0,0,1-3.23,1.77,14.61,14.61,0,0,1-2.72.42H249V41.18H265.2a71.07,71.07,0,0,1,11.86.82,14.77,14.77,0,0,1,7.19,3,12,12,0,0,1,3.58,6.14,48.14,48.14,0,0,1,1.27,10v.06h5.75V35Z"/></g></svg>