<?xml version="1.0" encoding="utf-8"?>
<!-- Generator: Adobe Illustrator 26.0.1, SVG Export Plug-In . SVG Version: 6.00 Build 0)  -->
<svg version="1.1" id="Layer_1" xmlns="http://www.w3.org/2000/svg" xmlns:xlink="http://www.w3.org/1999/xlink" x="0px" y="0px"
	 viewBox="0 0 710 165" style="enable-background:new 0 0 710 165;" xml:space="preserve">
<style type="text/css">
	.st0{clip-path:url(#SVGID_00000143609782510721723670000015854980154235576509_);}
	.st1{fill:#3B2FC9;}
</style>
<g>
	<defs>
		<rect id="SVGID_1_" y="0" width="934" height="165"/>
	</defs>
	<clipPath id="SVGID_00000057852990046835341430000007490390370320274048_">
		<use xlink:href="#SVGID_1_"  style="overflow:visible;"/>
	</clipPath>
	<g style="clip-path:url(#SVGID_00000057852990046835341430000007490390370320274048_);">
		<path class="st1" d="M40.4,89.8c-1,1-2.1,1.8-3.4,2.3c-1.3,0.5-2.6,0.8-4,0.8H7.9c-2.1,0-4.1-0.8-5.6-2.3C0.8,89.1,0,87.1,0,85
			V7.9c0-2.1,0.8-4.1,2.3-5.6C3.8,0.8,5.8,0,7.9,0h46.1C56,0,58,0.8,59.5,2.3c1.5,1.5,2.3,3.5,2.3,5.6v56.2c0,2.8-1.1,5.5-3.1,7.4
			l-9.2,9.2L40.4,89.8z"/>
		<path class="st1" d="M74,40.4c-1-1-1.7-2.1-2.3-3.4c-0.5-1.3-0.8-2.6-0.8-4V7.9c0-2.1,0.8-4.1,2.3-5.6C74.7,0.8,76.7,0,78.8,0H156
			c2.1,0,4.1,0.8,5.6,2.3c1.5,1.5,2.3,3.5,2.3,5.6v46.1c0,1-0.2,2.1-0.6,3c-0.4,1-1,1.8-1.7,2.6c-0.7,0.7-1.6,1.3-2.6,1.7
			c-1,0.4-2,0.6-3,0.6H99.7c-1.4,0-2.7-0.3-4-0.8c-1.3-0.5-2.4-1.3-3.4-2.3l-9.2-9.2L74,40.4z"/>
		<path class="st1" d="M123.4,74.5c2-2,4.6-3.1,7.4-3.1H156c2.1,0,4.1,0.8,5.6,2.3c1.5,1.5,2.3,3.5,2.3,5.6v77.1
			c0,2.1-0.8,4.1-2.3,5.6c-1.5,1.5-3.5,2.3-5.6,2.3h-46.1c-2.1,0-4.1-0.8-5.6-2.3c-1.5-1.5-2.3-3.5-2.3-5.6v-56.2
			c0-2.8,1.1-5.5,3.1-7.4l9.2-9.2L123.4,74.5z"/>
		<path class="st1" d="M89.8,123.8c2,2,3.1,4.6,3.1,7.4v25.1c0,2.1-0.8,4.1-2.3,5.6c-1.5,1.5-3.5,2.3-5.6,2.3H7.9
			c-2.1,0-4.1-0.8-5.6-2.3c-1.5-1.5-2.3-3.5-2.3-5.6v-46.1c0-2.1,0.8-4.1,2.3-5.6c1.5-1.5,3.5-2.3,5.6-2.3h56.2c1.4,0,2.7,0.3,4,0.8
			c1.3,0.5,2.4,1.3,3.4,2.3l9.2,9.1L89.8,123.8z"/>
		<path class="st1" d="M423.7,123.7L423.7,123.7c-1.1,0.8-2.1,1.4-2.7,1.8c-0.6,0.4-1.2,0.7-1.8,1c-0.4,0.2-0.9,0.4-1.3,0.4
			c-0.5,0.1-1,0.1-1.5,0.1c-0.9,0.1-1.9-0.2-2.7-0.7c-0.8-0.5-1.4-1.3-1.7-2.2c-0.8-1.9-1.2-5.5-1.2-10.7V89.2
			c0.1-3.3-0.2-6.7-0.7-10c-0.4-2.3-1.3-4.5-2.5-6.5c-4-6.3-11.8-9.5-23.2-9.5c-8.4,0-15.1,1.4-20,4.2c-4.8,2.8-7.4,6.8-7.4,11.7
			c0,1.1,0.1,2.3,0.5,3.4c0.4,1.1,1,2.1,1.8,2.9c0.8,0.8,1.7,1.4,2.7,1.8c1,0.4,2.1,0.6,3.2,0.6c1.1,0,2.3-0.1,3.4-0.5
			c1.1-0.4,2.1-1,2.9-1.8c0.8-0.8,1.4-1.7,1.8-2.7c0.4-1,0.6-2.1,0.6-3.2c0-0.9-0.1-1.9-0.5-2.8c-0.3-0.9-0.9-1.7-1.5-2.4
			c-0.5-0.5-1.1-1.1-1.5-1.6c-0.1-0.2-0.2-0.4-0.2-0.6c0-0.3,0.1-0.6,0.3-0.9s0.4-0.5,0.7-0.7c0.8-0.6,1.6-1.1,2.5-1.5
			c1.1-0.5,2.3-0.8,3.6-1c1.3-0.2,2.7-0.4,4.1-0.4c6.8,0,11.3,2,13.6,6c0.5,0.8,0.9,1.7,1.2,2.7c0.3,1,0.6,2.1,0.7,3.2
			c0.2,1.2,0.3,2.7,0.4,4.6c0.1,1.9,0.2,4.2,0.3,6.7l-13.9,2.5l-5.6,0.9c-2.8,0.5-5.2,1-7.1,1.4c-1.8,0.4-3.5,0.9-5.2,1.6
			c-1.4,0.5-2.7,1.2-3.9,1.9c-1.2,0.7-2.3,1.5-3.4,2.4c-3.6,3.3-5.4,7.9-5.4,13.7c0,6.2,1.8,11.2,5.4,14.8c3.6,3.6,8.6,5.4,14.9,5.4
			c4.4,0.1,8.7-1,12.6-3c4.4-2.5,8.3-5.8,11.6-9.7c0.3,1.6,0.8,3.2,1.3,4.7c0.4,1.1,1,2.1,1.6,3c1,1.4,2.3,2.5,3.8,3.3
			c1.5,0.8,3.1,1.2,4.7,1.2c2.7,0,5.4-0.7,7.8-2.1c3.2-1.9,6.1-4.2,8.7-6.8L423.7,123.7L423.7,123.7z M397.7,95.7v11.5
			c0,5.1-0.8,9-2.4,11.7c-1.5,2.6-3.7,4.7-6.4,6.2c-2.7,1.5-5.7,2.3-8.7,2.3c-1.8,0.1-3.6-0.2-5.2-0.8c-1.7-0.6-3.2-1.6-4.5-2.8
			c-1.2-1.3-2.2-2.9-2.8-4.6c-0.6-1.7-0.9-3.5-0.8-5.3c0-6.5,3-10.9,8.9-13.2c2.6-1,5.4-1.8,8.1-2.3C387.4,97.5,392,96.6,397.7,95.7
			L397.7,95.7z"/>
		<path class="st1" d="M474.9,124.7L474.9,124.7c-2.1,0.8-4.1,1.5-6.2,2.1c-1.4,0.4-2.9,0.6-4.4,0.6c-3.7,0-6.5-1.1-8.3-3.3
			c-1.8-2.2-2.8-5.5-2.8-9.9V72.3h20.6v-4.9h-20.6V39.9H450l-9.7,9.7v17.9h-16.8v4.9h16.8v47c0,5.4,1.2,9.5,3.7,12.2
			s6.2,4.1,11.2,4.1c3.3,0,6.6-0.6,9.8-1.6c4-1.4,7.8-3.3,11.4-5.5h0l-1.7-3.6L474.9,124.7z"/>
		<path class="st1" d="M562.7,55.8c1.2,0,2.4-0.2,3.5-0.6c1.1-0.4,2.1-1.1,2.9-1.9c1.2-1.2,2.1-2.8,2.4-4.5c0.3-1.7,0.2-3.5-0.5-5.1
			c-0.7-1.6-1.8-3-3.3-4c-1.5-1-3.2-1.5-4.9-1.5c-1.1,0-2.3,0.2-3.4,0.6c-1.1,0.4-2,1.1-2.8,1.9c-0.8,0.8-1.5,1.7-2,2.8
			s-0.7,2.2-0.7,3.3c0,1.2,0.2,2.3,0.6,3.4c0.4,1.1,1.1,2.1,1.9,2.9c0.8,0.8,1.7,1.5,2.8,2C560.4,55.6,561.6,55.9,562.7,55.8z"/>
		<path class="st1" d="M704.3,117.3c-1.8,1.9-3.7,3.7-5.8,5.4c-1.6,1.3-3.4,2.5-5.3,3.4c-1.8,0.8-3.6,1.4-5.5,1.8
			c-2.2,0.4-4.4,0.5-6.6,0.5c-8.3,0-14.7-2.8-18.8-8.4c-1.8-2.5-3.1-5.4-3.8-8.5c-0.8-4.3-1.2-8.6-1.1-13H710v-0.1
			c-0.1-4.2-0.5-8.3-1.3-12.4c-0.6-3.1-1.7-6-3.3-8.7c-2.6-4.6-6.6-8.3-11.3-10.6c-5.3-2.5-11.1-3.8-16.9-3.7
			c-4.9-0.1-9.8,0.8-14.4,2.5c-4.1,1.6-7.8,4-10.8,7.1c-3.1,3.3-5.4,7.1-6.9,11.4c-1.7,4.8-2.5,9.8-2.5,14.9
			c0,5.1,0.8,10.2,2.5,15.1c1.5,4.3,3.8,8.2,6.9,11.5c3,3.2,6.7,5.7,10.9,7.3c4.5,1.8,9.4,2.7,14.3,2.6c2.9,0,5.9-0.3,8.8-0.8
			c2.7-0.6,5.2-1.4,7.7-2.7c2.5-1.3,4.9-2.9,7.1-4.7c2.6-2.1,4.9-4.5,7-7v-0.1L704.3,117.3L704.3,117.3z M676.7,67.7
			c6.2,0,10.8,2,13.6,5.9c2.9,3.9,4.6,10.7,5.3,20h-38.1c0.7-9.4,2.5-16.1,5.5-20S670.5,67.7,676.7,67.7z"/>
		<path class="st1" d="M332.9,127.9c-1.2-0.4-2.2-1.1-2.9-2.2c-0.7-1.3-1.1-2.7-1.2-4.2c-0.2-2.4-0.3-4.8-0.3-7.2V28.8L302.6,35
			h-0.1v4.8h0.1c2.1,0,4.3,0.3,6.4,0.8c1.5,0.3,2.9,1.1,3.9,2.3c1,1.3,1.7,2.9,1.9,4.6c0.4,2.5,0.6,5,0.5,7.5v59.3
			c0,2.9-0.1,5.3-0.2,7.2c-0.1,1.5-0.5,3-1.2,4.3c-0.7,1.1-1.8,1.8-3,2.2c-1.8,0.5-3.6,1-5.4,1.3l-3.6,0.3v4.5H342v-4.6l-3.6-0.3
			C336.5,128.8,334.7,128.4,332.9,127.9z"/>
		<path class="st1" d="M576.2,127.9c-1.2-0.4-2.2-1.1-2.9-2.2c-0.7-1.3-1.1-2.7-1.2-4.2c-0.2-2.4-0.3-4.8-0.3-7.2v-53l-25.9,6.2
			h-0.1v4.8h0.1c2.1,0,4.3,0.3,6.4,0.8c1.5,0.3,2.9,1.1,3.9,2.3c1,1.3,1.7,2.9,1.9,4.6c0.4,2.5,0.6,5,0.5,7.5v26.8
			c0,2.9-0.1,5.4-0.2,7.2c-0.1,1.5-0.5,3-1.2,4.3c-0.7,1.1-1.8,1.8-3,2.2c-1.8,0.5-3.6,1-5.4,1.3l-3.6,0.3H545v4.5h40.2v-4.6
			l-3.6-0.3C579.8,128.8,578,128.4,576.2,127.9z"/>
		<path class="st1" d="M626.5,127.9c-1.2-0.4-2.2-1.1-2.9-2.2c-0.7-1.3-1.2-2.7-1.3-4.2c-0.2-2.4-0.3-4.8-0.3-7.2V28.8L596.1,35v4.8
			h0.1c2.1,0,4.3,0.3,6.4,0.8c1.5,0.3,2.9,1.1,3.9,2.3c1,1.3,1.7,2.9,1.9,4.6c0.4,2.5,0.6,5,0.5,7.5v59.3c0,2.9-0.1,5.4-0.2,7.2
			c0,1.5-0.5,3-1.2,4.3c-0.7,1.1-1.8,1.8-3,2.2c-1.8,0.5-3.6,1-5.4,1.3l-3.6,0.3h-0.1v4.5h40.2v-4.6l-3.6-0.3
			C630.1,128.8,628.3,128.4,626.5,127.9z"/>
		<path class="st1" d="M534.9,34.6c-3-2.1-6.9-3.2-11.6-3.2c-7.1,0-12.8,2.3-17,6.9c-4.2,4.6-6.3,10.8-6.3,18.7c0,0.8,0,4.7,0.1,6.1
			c0.1,1.4,0.2,2.8,0.4,4.3h-13.7v4.8h13.5v42c0,3-0.1,5.4-0.2,7.2c-0.1,1.5-0.5,3-1.2,4.3c-0.7,1.1-1.8,1.8-3,2.2
			c-1.8,0.5-3.6,1-5.4,1.3l-3.6,0.3h-0.1v4.5H528v-4.6l-4.7-0.3c-1.8-0.3-3.6-0.7-5.4-1.3c-1.2-0.4-2.3-1.1-3-2.2
			c-0.8-1.3-1.2-2.8-1.2-4.3c-0.2-1.8-0.2-4.2-0.2-7.2V72.3H532v-4.9h-18.6c-1.5-4.2-2.6-8.6-3.2-13c-0.5-3.4-0.5-6.8,0.2-10.1
			c0.8-3.4,2.6-5.8,5.2-7l0.3-0.1l0.2,0l0.1-0.1l0.1,0l0.3-0.1c1.2-0.4,2.4-0.7,3.7-0.7c1.3,0,2.6,0.2,3.8,0.7
			c1.1,0.5,1.7,1,1.7,1.4c0,0.3-0.3,0.7-0.9,1.3c-0.8,0.7-1.4,1.6-1.8,2.6s-0.6,2-0.6,3.1c0,1,0.1,2.1,0.5,3s1,1.8,1.7,2.5
			c1.5,1.4,3.6,2.2,5.7,2.1c1.2,0,2.4-0.2,3.5-0.7c1.1-0.5,2.1-1.2,2.9-2.1c1.7-2,2.6-4.5,2.5-7.2c0-1.7-0.4-3.3-1.2-4.8
			S536.3,35.5,534.9,34.6z"/>
		<path class="st1" d="M218.6,35v4.9l5.4,0.6c4,0.4,6.7,1.4,8.1,3.1c0.4,0.4,0.7,0.9,1,1.4c0.3,0.6,0.5,1.2,0.5,1.9
			c0.1,0.8,0.2,1.9,0.2,3.1s0.1,2.9,0.1,5v59.1c0,2.1,0,3.7-0.1,5c-0.1,1.3-0.1,2.3-0.2,3.1c-0.1,0.7-0.2,1.4-0.5,2
			c-0.2,0.5-0.6,0.9-1,1.3c-1.4,1.7-4.1,2.7-8.1,3.1l-5.3,0.6h-0.1v4.8h47.2v-4.9l-6.9-0.6c-3.9-0.3-6.6-1.3-8.1-3.1
			c-0.4-0.4-0.7-0.8-0.9-1.3c-0.2-0.6-0.4-1.3-0.5-2c-0.2-1-0.3-2.1-0.3-3.1c-0.1-1.2-0.1-2.8-0.1-5V91.2h12.9
			c1.3,0,2.5,0.2,3.8,0.4c1.3,0.3,2.5,0.8,3.5,1.6c1.1,0.9,1.9,2,2.6,3.2c0.8,1.6,1.5,3.3,2,5l1.2,4.1h5.9V70.3H275l-1,4
			c-0.6,1.9-1.2,3.7-2,5.4c-0.6,1.3-1.4,2.4-2.4,3.4c-0.9,0.8-2,1.4-3.2,1.8c-0.9,0.2-1.8,0.4-2.7,0.4H249V41.2h16.2
			c4-0.1,7.9,0.2,11.9,0.8c2.6,0.3,5.1,1.4,7.2,3c1.8,1.6,3,3.8,3.6,6.1c0.8,3.3,1.2,6.6,1.3,10v0.1h5.8V35H218.6z"/>
	</g>
</g>
</svg>
